<svg version="1.1" id="Layer_1" xmlns="http://www.w3.org/2000/svg" xmlns:xlink="http://www.w3.org/1999/xlink" x="0px" y="0px"
	 width="100%" viewBox="0 0 736 740" enable-background="new 0 0 736 740" xml:space="preserve">
<path fill="#000000" opacity="1.000000" stroke="none" 
	d="
M737.000000,2.000000 
	C737.000000,125.689308 737.000000,249.378616 736.628906,373.666412 
	C701.437683,381.565491 666.619324,388.874451 631.797058,396.164825 
	C567.031921,409.723969 502.265869,423.278625 437.496918,436.819366 
	C425.504486,439.326569 413.496552,441.759583 401.056122,444.317200 
	C399.554993,436.263245 398.154816,428.607880 396.699158,420.963043 
	C384.506317,356.929291 372.276917,292.902466 360.110596,228.863663 
	C347.448029,162.212662 334.820557,95.554977 322.240234,28.888420 
	C320.524323,19.795265 319.170166,10.633848 318.112000,1.689957 
	C320.740082,1.916884 322.904633,1.993689 325.069214,1.993784 
	C462.379486,1.999829 599.689758,1.999632 737.000000,2.000000 
z"/>
<path fill="#010101" opacity="1.000000" stroke="none" 
	d="
M1.000000,740.000000 
	C1.000000,611.644043 1.000000,483.288055 1.463275,354.542786 
	C113.461769,352.598877 224.996994,351.044250 336.678040,349.487579 
	C338.527649,358.658630 340.307770,367.443054 342.070221,376.231049 
	C353.972687,435.580597 365.996704,494.906281 377.683929,554.298218 
	C380.629761,569.268311 383.831543,584.383728 384.597046,599.549377 
	C386.637085,639.964172 387.439941,680.441833 388.667938,720.896606 
	C388.857300,727.135437 388.694366,733.384949 388.694366,739.831238 
	C386.514404,739.831238 384.699463,739.831238 382.884521,739.831238 
	C257.584900,739.831238 132.285263,739.830444 6.985641,739.838257 
	C4.990424,739.838379 2.995214,739.943726 1.000000,740.000000 
M201.186356,480.295166 
	C203.860474,492.411621 206.534592,504.528076 209.256058,516.859131 
	C220.746872,514.366760 231.741684,511.981964 243.122238,509.513519 
	C234.359329,468.798279 225.673477,428.441071 216.974121,388.021118 
	C205.300247,390.540741 194.285461,392.918121 183.055771,395.341888 
	C189.104019,423.609558 195.078979,451.534668 201.186356,480.295166 
M296.831421,412.652435 
	C295.864868,409.718781 294.898346,406.785126 293.862213,403.640167 
	C278.205383,408.264557 263.028198,412.747314 247.754868,417.258423 
	C253.828903,437.855133 259.693024,457.740051 265.671692,478.013397 
	C281.217987,473.436707 296.437775,468.956085 311.917908,464.398865 
	C306.871613,447.176819 301.929535,430.310364 296.831421,412.652435 
z"/>
<path fill="#FEFEFE" opacity="1.000000" stroke="none" 
	d="
M1.000000,740.500000 
	C2.995214,739.943726 4.990424,739.838379 6.985641,739.838257 
	C132.285263,739.830444 257.584900,739.831238 382.884521,739.831238 
	C384.699463,739.831238 386.514404,739.831238 388.694366,739.831238 
	C388.694366,733.384949 388.857300,727.135437 388.667938,720.896606 
	C387.439941,680.441833 386.637085,639.964172 384.597046,599.549377 
	C383.831543,584.383728 380.629761,569.268311 377.683929,554.298218 
	C365.996704,494.906281 353.972687,435.580597 342.070221,376.231049 
	C340.307770,367.443054 338.527649,358.658630 336.678040,349.487579 
	C224.996994,351.044250 113.461769,352.598877 1.463275,354.076782 
	C1.000000,330.312439 1.000000,306.624878 1.409397,282.351227 
	C108.720413,276.301636 215.622025,270.838104 322.667664,265.367218 
	C322.374359,263.829987 322.249084,263.015015 322.061768,262.214539 
	C306.419159,195.369156 290.781982,128.522476 275.118347,61.682026 
	C270.453735,41.776985 265.713928,21.889557 261.068115,1.745013 
	C261.085083,1.330644 261.042542,1.165322 261.000000,1.000000 
	C279.687561,1.000000 298.375122,1.000000 317.382812,1.083704 
	C317.702942,1.167408 317.648529,1.504036 317.648529,1.504036 
	C319.170166,10.633848 320.524323,19.795265 322.240234,28.888420 
	C334.820557,95.554977 347.448029,162.212662 360.110596,228.863663 
	C372.276917,292.902466 384.506317,356.929291 396.699158,420.963043 
	C398.154816,428.607880 399.554993,436.263245 401.056122,444.317200 
	C413.496552,441.759583 425.504486,439.326569 437.496918,436.819366 
	C502.265869,423.278625 567.031921,409.723969 631.797058,396.164825 
	C666.619324,388.874451 701.437683,381.565491 736.628906,374.132446 
	C737.000000,407.354218 737.000000,440.708466 736.618652,474.670166 
	C735.586609,475.421936 734.942688,475.620514 734.284302,475.702728 
	C682.425903,482.176788 630.563843,488.621552 578.707642,495.113464 
	C533.124573,500.820068 487.546875,506.570343 441.969666,512.324219 
	C435.759155,513.108276 429.565369,514.025024 422.462006,515.004639 
	C433.532806,589.858276 436.642609,664.591858 433.736633,739.831543 
	C437.108368,739.831543 439.095612,739.831543 441.082825,739.831543 
	C537.726562,739.831543 634.370361,739.830566 731.014099,739.838684 
	C733.009399,739.838806 735.004700,739.943909 737.000000,740.000000 
	C736.833313,740.333313 736.684021,740.943848 736.497192,740.955505 
	C735.169128,741.039001 733.833313,741.000000 732.500000,741.000000 
	C488.666656,741.000000 244.833328,741.000000 1.000000,740.500000 
z"/>
<path fill="#000000" opacity="1.000000" stroke="none" 
	d="
M261.008575,1.994060 
	C265.713928,21.889557 270.453735,41.776985 275.118347,61.682026 
	C290.781982,128.522476 306.419159,195.369156 322.061768,262.214539 
	C322.249084,263.015015 322.374359,263.829987 322.667664,265.367218 
	C215.622025,270.838104 108.720413,276.301636 1.409397,281.882568 
	C1.000000,188.979111 1.000000,95.958206 1.468657,2.468224 
	C88.294403,1.997442 174.651489,1.995752 261.008575,1.994060 
z"/>
<path fill="#010101" opacity="1.000000" stroke="none" 
	d="
M737.000000,739.531372 
	C735.004700,739.943909 733.009399,739.838806 731.014099,739.838684 
	C634.370361,739.830566 537.726562,739.831543 441.082825,739.831543 
	C439.095612,739.831543 437.108368,739.831543 433.736633,739.831543 
	C436.642609,664.591858 433.532806,589.858276 422.462006,515.004639 
	C429.565369,514.025024 435.759155,513.108276 441.969666,512.324219 
	C487.546875,506.570343 533.124573,500.820068 578.707642,495.113464 
	C630.563843,488.621552 682.425903,482.176788 734.284302,475.702728 
	C734.942688,475.620514 735.586609,475.421936 736.618652,475.138855 
	C737.000000,563.020874 737.000000,651.041809 737.000000,739.531372 
z"/>
<path fill="#606060" opacity="1.000000" stroke="none" 
	d="
M318.112000,1.689957 
	C317.648529,1.504036 317.702942,1.167408 317.851471,1.083704 
	C457.666656,1.000000 597.333313,1.000000 737.000000,1.500000 
	C599.689758,1.999632 462.379486,1.999829 325.069214,1.993784 
	C322.904633,1.993689 320.740082,1.916884 318.112000,1.689957 
z"/>
<path fill="#606060" opacity="1.000000" stroke="none" 
	d="
M261.068115,1.745013 
	C174.651489,1.995752 88.294403,1.997442 1.468657,1.999567 
	C2.496922,1.666667 3.993685,1.042452 5.490790,1.041627 
	C90.348076,0.994868 175.205383,1.000000 260.531342,1.000000 
	C261.042542,1.165322 261.085083,1.330644 261.068115,1.745013 
z"/>
<path fill="#FCFCFC" opacity="1.000000" stroke="none" 
	d="
M201.120148,479.877472 
	C195.078979,451.534668 189.104019,423.609558 183.055771,395.341888 
	C194.285461,392.918121 205.300247,390.540741 216.974121,388.021118 
	C225.673477,428.441071 234.359329,468.798279 243.122238,509.513519 
	C231.741684,511.981964 220.746872,514.366760 209.256058,516.859131 
	C206.534592,504.528076 203.860474,492.411621 201.120148,479.877472 
z"/>
<path fill="#FCFCFC" opacity="1.000000" stroke="none" 
	d="
M296.909424,413.048187 
	C301.929535,430.310364 306.871613,447.176819 311.917908,464.398865 
	C296.437775,468.956085 281.217987,473.436707 265.671692,478.013397 
	C259.693024,457.740051 253.828903,437.855133 247.754868,417.258423 
	C263.028198,412.747314 278.205383,408.264557 293.862213,403.640167 
	C294.898346,406.785126 295.864868,409.718781 296.909424,413.048187 
z"/>
</svg>